_DEMO_DATA_START EQU $2000


MACRO NOTE_C1
  dw %0000000000101011
  db $00
ENDM

MACRO NOTE_D1
  dw %0000000000101011
  db $00
ENDM

MACRO NOTE_E1
  dw %0000000111001001
  db $00
ENDM

MACRO NOTE_F1
  dw %0000001000100010
  db $00
ENDM

MACRO NOTE_G1
  dw %0000001011000110
  db $00
ENDM

MACRO NOTE_A1
  dw %0000001101011000
  db $00
ENDM

MACRO NOTE_B1
  dw %0000001111011010
  db $00
ENDM


MACRO NOTE_C2
  dw %0000010000010110
  db $00
ENDM

MACRO NOTE_D2
  dw %0000010010000011
  db $00
ENDM

MACRO NOTE_E2
  dw %0000010011100100
  db $00
ENDM

MACRO NOTE_F2
  dw %0000010100010001
  db $00
ENDM

MACRO NOTE_G2
  dw %0000010101100011
  db $00
ENDM

MACRO NOTE_A2
  dw %0000010110101100
  db $00
ENDM

MACRO NOTE_B2
  dw %0000010111101101
  db $00
ENDM


MACRO NOTE_C3
  dw %0000011000001010
  db $00
ENDM

MACRO NOTE_D3
  dw %0000011001000001
  db $00
ENDM

MACRO NOTE_E3
  dw %0000011001110010
  db $00
ENDM

MACRO NOTE_F3
  dw %0000011010001000
  db $00
ENDM

MACRO NOTE_G3
  dw %0000011010110001
  db $00
ENDM

MACRO NOTE_A3
  dw %0000011011010110
  db $00
ENDM

MACRO NOTE_B3
  dw %0000011011110110
  db $00
ENDM


MACRO NOTE_C4
  dw %0000011100000101
  db $00
ENDM

MACRO NOTE_D4
  dw %0000011100100000
  db $00
ENDM

MACRO NOTE_E4
  dw %0000011100111001
  db $00
ENDM

MACRO NOTE_F4
  dw %0000011101000100
  db $00
ENDM

MACRO NOTE_G4
  dw %0000011101011000
  db $00
ENDM

MACRO NOTE_A4
  dw %0000011101101011
  db $00
ENDM

MACRO NOTE_B4
  dw %0000011101111011
  db $00
ENDM


MACRO NOTE_C5
  dw %0000011110000010
  db $00
ENDM

MACRO NOTE_D5
  dw %0000011110010000
  db $00
ENDM

MACRO NOTE_E5
  dw %0000011110011100
  db $00
ENDM

MACRO NOTE_F5
  dw %0000011110100010
  db $00
ENDM

MACRO NOTE_G5
  dw %0000011110101100
  db $00
ENDM

MACRO NOTE_A5
  dw %0000011110110101
  db $00
ENDM

MACRO NOTE_B5
  dw %0000011110111101
  db $00
ENDM


MACRO NOTE_C6
  dw %0000011111000001
  db $00
ENDM

MACRO NOTE_D6
  dw %0000011111001000
  db $00
ENDM

MACRO NOTE_E6
  dw %0000011111001110
  db $00
ENDM

MACRO NOTE_F6
  dw %0000011111010001
  db $00
ENDM

MACRO NOTE_G6
  dw %0000011111010110
  db $00
ENDM

MACRO NOTE_A6
  dw %0000011111011010
  db $00
ENDM

MACRO NOTE_B6
  dw %0000011111011110
  db $00
ENDM


MACRO NOTE_C7
  dw %0000011111100000
  db $00
ENDM

MACRO NOTE_D7
  dw %0000011111100100
  db $00
ENDM

MACRO NOTE_E7
  dw %0000011111100111
  db $00
ENDM

MACRO NOTE_F7
  dw %0000011111101000
  db $00
ENDM

MACRO NOTE_G7
  dw %0000011111101011
  db $00
ENDM

MACRO NOTE_A7
  dw %0000011111101101
  db $00
ENDM

MACRO NOTE_B7
  dw %0000011111101111
  db $00
ENDM


MACRO NOTE_C8
  dw %0000011111110000
  db $00
ENDM

MACRO NOTE_D8
  dw %0000011111110010
  db $00
ENDM

MACRO NOTE_E8
  dw %0000011111110011
  db $00
ENDM

MACRO NOTE_F8
  dw %0000011111110100
  db $00
ENDM

MACRO NOTE_G8
  dw %0000011111110101
  db $00
ENDM

MACRO NOTE_A8
  dw %0000011111110110
  db $00
ENDM

MACRO NOTE_B8
  dw %0000011111110111
  db $00
ENDM
